<svg
    xmlns="http://www.w3.org/2000/svg"
    viewBox="0 0 24 24"
    width="16px"
    height="16px">
    <path
            id="path28_1_"
            d="M 6.54 21.559 L 6.54 8.66 L 2.253 8.66 L 2.253 21.559 L 6.54 21.559 Z M 4.398 6.898 C 5.892 6.898 6.823 5.908 6.823 4.67 C 6.795 3.404 5.892 2.441 4.426 2.441 C 2.959 2.441 2 3.404 2 4.67 C 2 5.908 2.93 6.898 4.369 6.898 L 4.398 6.898 Z"
            class="svg-path"
            stroke-width="0.123663656"/>
    <path
            id="path30_1_"
            d="M 8.913 21.559 L 13.201 21.559 L 13.201 14.355 C 13.201 13.97 13.229 13.584 13.342 13.309 C 13.651 12.538 14.357 11.741 15.541 11.741 C 17.093 11.741 17.713 12.924 17.713 14.658 L 17.713 21.559 L 22 21.559 L 22 14.162 C 22 10.2 19.885 8.357 17.064 8.357 C 14.752 8.357 13.736 9.649 13.172 10.53 L 13.201 10.53 L 13.201 8.66 L 8.913 8.66 C 8.97 9.87 8.913 21.559 8.913 21.559 Z"
            class="svg-path"
            stroke-width="0.123663656"/>
</svg>