<?xml version="1.0" encoding="UTF-8" standalone="no"?>
<!-- Created with Inkscape (http://www.inkscape.org/) -->

<svg
   xmlns:dc="http://purl.org/dc/elements/1.1/"
   xmlns:cc="http://creativecommons.org/ns#"
   xmlns:rdf="http://www.w3.org/1999/02/22-rdf-syntax-ns#"
   xmlns:svg="http://www.w3.org/2000/svg"
   xmlns="http://www.w3.org/2000/svg"
   xmlns:sodipodi="http://sodipodi.sourceforge.net/DTD/sodipodi-0.dtd"
   xmlns:inkscape="http://www.inkscape.org/namespaces/inkscape"
   width="24"
   height="24"
   viewBox="0 0 24 24"
   id="svg2"
   version="1.1"
   inkscape:version="0.91 r13725"
   sodipodi:docname="favicon.svg">
  <defs
     id="defs4" />
  <sodipodi:namedview
     id="base"
     pagecolor="#ffffff"
     bordercolor="#666666"
     borderopacity="1.0"
     inkscape:pageopacity="0.0"
     inkscape:pageshadow="2"
     inkscape:zoom="5.6"
     inkscape:cx="30.463203"
     inkscape:cy="4.4564781"
     inkscape:document-units="px"
     inkscape:current-layer="layer1"
     showgrid="false"
     units="px"
     inkscape:window-width="1440"
     inkscape:window-height="800"
     inkscape:window-x="0"
     inkscape:window-y="1"
     inkscape:window-maximized="1" />
  <metadata
     id="metadata7">
    <rdf:RDF>
      <cc:Work
         rdf:about="">
        <dc:format>image/svg+xml</dc:format>
        <dc:type
           rdf:resource="http://purl.org/dc/dcmitype/StillImage" />
        <dc:title></dc:title>
      </cc:Work>
    </rdf:RDF>
  </metadata>
  <g
     inkscape:label="Layer 1"
     inkscape:groupmode="layer"
     id="layer1"
     transform="translate(0,-1028.3622)">
    <g
       transform="matrix(0,1,-1,0,0,0)"
       style="font-style:normal;font-weight:normal;font-size:40px;line-height:125%;font-family:sans-serif;letter-spacing:0px;word-spacing:0px;fill:#ff6f00;fill-opacity:1;stroke:none;stroke-width:1px;stroke-linecap:butt;stroke-linejoin:miter;stroke-opacity:1"
       id="text4136">
      <path
         d="m 1031.976,-19.086182 0,14.1723636 2.9785,0 q 3.7719,0 5.5175,-1.7089843 1.7579,-1.7089844 1.7579,-5.3955083 0,-3.662109 -1.7579,-5.358886 -1.7456,-1.708985 -5.5175,-1.708985 l -2.9785,0 z m -2.4659,-2.026367 5.0659,0 q 5.2979,0 7.7759,2.209473 2.4781,2.197265 2.4781,6.884765 0,4.7119145 -2.4903,6.9213872 -2.4902,2.2094726 -7.7637,2.2094726 l -5.0659,0 0,-18.2250978 z"
         style="font-size:25px;fill:#ff6f00;fill-opacity:1"
         id="path4141" />
      <path
         d="m 1048.7484,-21.112549 2.4658,0 0,18.2250978 -2.4658,0 0,-18.2250978 z"
         style="font-size:25px;fill:#ff6f00;fill-opacity:1"
         id="path4143" />
    </g>
  </g>
</svg>
